<?xml version="1.0" encoding="UTF-8"?>
<svg id="_レイヤー_2" data-name=" レイヤー 2" xmlns="http://www.w3.org/2000/svg" viewBox="0 0 646 74">
  <defs>
    <style>
      .cls-1 {
        fill: #231815;
      }

      .cls-2 {
        fill: #fff;
      }

      .cls-3 {
        fill: #9a0047;
      }
    </style>
  </defs>
  <g>
    <g>
      <path d="M596.14,38.4l-.07-.33-.27-.19c-.53-.37-1.08-.21-1.34-.12-.04,0-.1.03-.12.03-.12,0-.25.02-.38.02-.27,0-.52.02-.81.07-.55.09-1.14.09-1.75.09h-.31c-.43,0-.85-.07-1.3-.14-.25-.04-.51-.08-.79-.11-.45-.05-.93-.22-1.53-.54-2.12-1.13-4.14-2.87-5.85-5l-.96-1.17s-1.67-2.25-1.94-2.58c-.43-.55-.81-1.06-1.11-1.51-.17-.25-.35-.49-.51-.71-.29-.39-.56-.75-.75-1.14-.27-.54-.51-1.15-.74-1.74l-.19-.48-.21-.5c-.21-.51-.42-.99-.53-1.48-.06-.23-.06-.5-.04-.67.3,0,.65.06,1.02.14.25.05.51.1.78.14.8.1,1.54.18,2.38.18,1.11,0,5.12.26,5.89.26.46,0,.9-.03,1.31-.07.09,0,.22,0,.37,0,.25,0,.54.03.85-.03.72-.15,1.48-.69,2.13-1.21.7-.55,1.32-1.2,1.81-1.88.17-.24.34-.44.55-.64.03-.04.78-.68.91-1.14.12-.47.05-.93-.22-1.28-.54-.7-1.61-.7-2.18-.7-.75,0-1.44.09-2.11.18-.59.08-1.19.08-1.76.08-.35,0-.69-.02-1.06-.04-.28-.02-.56-.04-.85-.04-.32,0-.61-.04-.95-.08-.24-.03-.46-.04-.69-.05-.2,0-.38,0-.55-.03l-.71-.09c-.48-.07-.98-.13-1.49-.18-.28-.03-.56-.02-.81,0h-.32c-.15,0-.33-.02-.5-.04-.3-.03-.64-.08-1.01-.04-.62.06-1.26.12-1.91.17l-.27.02c-.15,0-.32.03-.48.04.03-.1.06-.21.08-.31.08-.38.18-.69.3-1.01.11-.33.23-.68.33-1.06.02-.08.04-.15.06-.23.06-.22.13-.48.16-.79.04-.41-.07-.73-.14-.97-.03-.07-.04-.13-.06-.19-.06-.22,0-.38.17-.78.1-.24.21-.51.28-.83.19-.83.3-1.79-.28-2.65-.45-.64-1.04-.9-1.51-1.11-.09-.04-.18-.08-.27-.12-.55-.26-1.15-.47-1.72-.66-.15-.05-.28-.11-.41-.17-.38-.19-.91-.44-1.61-.34-.72.1-1.23.47-1.67.8-.08.06-.15.11-.22.16-.07.05-.19.11-.31.17-.49.26-1.63.87-1.34,2.1.15.63.52,1.3,1.12,1.98.45.53.63.85.76,1.37.05.17.11.32.14.45.07.16.11.29.13.41.02.16.01.38,0,.6v.41c0,.66-.08,1.3-.16,1.97l-.02.11c-.04.33,0,.63.02.87,0,.07.02.15.02.22-.41.18-1.68.24-1.68.24-1.46.04-2.96.09-4.42.26-.48.06-.95.2-1.41.35-.25.08-.48.15-.7.2-.31.08-.62.18-.92.28-.42.14-.87.29-1.2.31-.06,0-.26-.1-.4-.17-.43-.23-1.15-.61-1.99-.13-.79.45-1.44,1.36-1.6,2.25-.14.88-.22,1.63-.06,2.51.13.68.3,1.59.76,2.26,1.23,1.85,3.26.64,4.23.07.21-.12.4-.24.57-.32,1.14-.57,2.43-.85,4.06-.85h.5c.62,0,1.26.03,1.9-.12.33-.08.71-.14,1.06-.16-.05.09-.1.19-.14.3-.12.3-.26.61-.41.93-.18.4-.36.82-.52,1.24-.16.42-.28.8-.37,1.15-.06.21-.12.4-.22.64-.03.1-.07.2-.12.32-.24.66-.56,1.43-1.05,2.2-.33.52-2.04,3.35-2.67,4.17-.55.74-1.14,1.41-1.73,1.96-.2.19-.39.38-.58.57-.37.37-.72.73-1.11,1.01-.54.39-1.15.75-1.85,1.08-.43.2-.96.35-1.47.48l-.31.08c-.2.05-.39.13-.55.19-.18.07-1.19.26-1.53.3-.17.02-.33.02-.51,0-.68,0-2.09-.02-2.38,1.4l-.08.35.2.3s.07.12.11.19c.09.18.21.39.41.61.17.19.35.33.5.46.13.09.24.19.31.27.1.12.19.23.29.35.39.48.79.98,1.41,1.4,1.16.79,2.47,1.5,4.16,1.35,1.69-.16,2.69-1.31,3.57-2.33l.16-.17.85-.98,2.21-2.53c.32-.37.68-.73,1.05-1.11.29-.29.58-.58.86-.89.3-.32.55-.65.8-.98.14-.18.27-.35.41-.52.85-1.02,1.49-2.18,2.12-3.3,0,0,1.02-2.07,1.14-2.3.25-.51.53-1.05.86-1.57.04.08.07.16.1.24.17.42.34.86.61,1.3.27.42.52.86.78,1.28.51.87,1.05,1.78,1.7,2.64.45.6.9,1.18,1.36,1.77.15.19.31.37.46.55.3.35,1.13,1.69,1.35,1.98.23.3.83.94.83.94.51.56.92,1.06,1.26,1.52.9,1.2,2.12,1.98,3.29,2.74l.09.06c.4.25.79.54,1.16.81.71.53,1.45,1.07,2.34,1.48,1.74.79,3.3.73,4.79-.19l.6-.36c.33-.2.67-.4.99-.6.28-.18.62-.44.87-.89.22-.39.26-.73.28-.97.01-.1.02-.18.04-.26.04-.2.31-.57.82-.94.78-.57,1.52-1.55,1.26-2.6l.02.02Z"/>
      <path d="M446.6,38.4l-.08-.33-.27-.19c-.53-.37-1.07-.21-1.33-.12-.04,0-.11.03-.13.03-.12,0-.25.02-.38.02-.26,0-.52.02-.8.07-.55.09-1.13.09-1.75.09h-.31c-.43,0-.85-.07-1.31-.14-.25-.04-.51-.08-.78-.11-.45-.05-.94-.22-1.53-.54-2.12-1.13-4.14-2.87-5.85-5l-.95-1.17s-1.68-2.25-1.94-2.58c-.44-.55-.81-1.06-1.11-1.51-.17-.25-.34-.49-.51-.71-.28-.39-.56-.75-.75-1.14-.27-.54-.51-1.15-.75-1.74l-.19-.48-.21-.5c-.21-.51-.42-.99-.53-1.48-.06-.23-.06-.5-.04-.67.31,0,.66.06,1.02.14.26.05.52.1.78.14.81.1,1.55.18,2.38.18,1.11,0,5.11.26,5.9.26.46,0,.89-.03,1.31-.07.09,0,.22,0,.36,0,.26,0,.55.03.85-.03.72-.15,1.48-.69,2.13-1.21.69-.55,1.32-1.2,1.81-1.88.17-.24.33-.44.55-.64.03-.04.79-.68.9-1.14.13-.47.06-.93-.22-1.28-.53-.7-1.6-.7-2.18-.7-.75,0-1.43.09-2.1.18-.58.08-1.19.08-1.76.08-.35,0-.7-.02-1.06-.04-.28-.02-.57-.04-.85-.04-.32,0-.61-.04-.95-.08-.23-.03-.46-.04-.69-.05-.2,0-.38,0-.56-.03l-.7-.09c-.48-.07-.99-.13-1.5-.18-.28-.03-.56-.02-.81,0h-.32c-.15,0-.33-.02-.5-.04-.3-.03-.65-.08-1.02-.04-.62.06-1.26.12-1.91.17l-.26.02c-.16,0-.32.03-.48.04.03-.1.06-.21.08-.31.09-.38.19-.69.31-1.01.11-.33.23-.68.32-1.06.02-.08.04-.15.07-.23.06-.22.13-.48.16-.79.03-.41-.07-.73-.14-.97-.03-.07-.04-.13-.06-.19-.06-.22,0-.38.16-.78.1-.24.21-.51.29-.83.18-.83.3-1.79-.3-2.65-.45-.64-1.03-.9-1.51-1.11-.09-.04-.18-.08-.27-.12-.55-.26-1.15-.47-1.72-.66-.16-.05-.28-.11-.41-.17-.39-.19-.92-.44-1.62-.34-.72.1-1.23.47-1.66.8-.08.06-.16.11-.23.16-.06.05-.18.11-.3.17-.49.26-1.64.87-1.34,2.1.15.63.52,1.3,1.11,1.98.45.53.64.85.77,1.37.05.17.1.32.14.45.06.16.11.29.12.41.02.16.01.38,0,.6,0,.13-.01.27-.01.41,0,.66-.08,1.3-.16,1.97l-.02.11c-.04.33,0,.63.02.87.01.07.02.15.02.22-.41.18-1.68.24-1.68.24-1.46.04-2.96.09-4.42.26-.48.06-.95.2-1.41.35-.25.08-.48.15-.7.2-.31.08-.62.18-.92.28-.42.14-.87.29-1.2.31-.07,0-.26-.1-.4-.17-.43-.23-1.16-.61-1.99-.13-.8.45-1.45,1.36-1.6,2.25-.15.88-.22,1.63-.07,2.51.13.68.31,1.59.76,2.26,1.23,1.85,3.26.64,4.23.07.21-.12.41-.24.57-.32,1.14-.57,2.43-.85,4.07-.85h.5c.62,0,1.26.03,1.89-.12.34-.08.71-.14,1.06-.16-.05.09-.1.19-.14.3-.12.3-.26.61-.41.93-.18.4-.36.82-.52,1.24-.16.42-.27.8-.36,1.15-.06.21-.13.4-.23.64-.03.1-.07.2-.12.32-.23.66-.56,1.43-1.05,2.2-.33.52-2.04,3.35-2.66,4.17-.56.74-1.14,1.41-1.73,1.96-.21.19-.4.38-.58.57-.37.37-.72.73-1.11,1.01-.53.39-1.15.75-1.85,1.08-.43.2-.96.35-1.47.48l-.31.08c-.21.05-.39.13-.56.19-.18.07-1.19.26-1.53.3-.18.02-.34.02-.52,0-.68,0-2.08-.02-2.38,1.4l-.08.35.19.3s.07.12.11.19c.1.18.21.39.41.61.17.19.35.33.51.46.12.09.23.19.3.27.09.12.19.23.28.35.39.48.79.98,1.41,1.4,1.16.79,2.48,1.5,4.17,1.35,1.69-.16,2.68-1.31,3.56-2.33l.16-.17.86-.98,2.21-2.53c.32-.37.67-.73,1.05-1.11.28-.29.58-.58.86-.89.3-.32.55-.65.81-.98.14-.18.27-.35.41-.52.84-1.02,1.49-2.18,2.12-3.3,0,0,1.02-2.07,1.14-2.3.26-.51.54-1.05.87-1.57.04.08.07.16.1.24.17.42.35.86.62,1.3.27.42.52.86.77,1.28.52.87,1.06,1.78,1.7,2.64.45.6.9,1.18,1.36,1.77.15.19.31.37.46.55.3.35,1.14,1.69,1.35,1.98.23.3.83.94.83.94.51.56.93,1.06,1.28,1.52.89,1.2,2.11,1.98,3.29,2.74l.1.06c.4.25.78.54,1.15.81.71.53,1.45,1.07,2.35,1.48,1.73.79,3.3.73,4.78-.19l.6-.36c.33-.2.67-.4.99-.6.27-.18.61-.44.86-.89.21-.39.26-.73.28-.97,0-.1.02-.18.04-.26.04-.2.32-.57.82-.94.77-.57,1.52-1.55,1.26-2.6l.06.02Z"/>
      <path d="M623.82,26.32c-.27.45-1.23.6-1.55.37-1.43-1.03-2.12-1.48-3.58-1.69-1.82-.26-1.83,1.09-.89,1.8.81.63,1.92,1.71.72,1.77-3.53.18-9.22.16-10.06.16-.36,0-1.26-.49-2.26-.3-.8.15-1.7.77-1.7.77,0,0-1.7,2.18-2.5,3.16-.82,1-.97,2.25.01,2.97.99.71,1.98,1.07,2.7.97.71-.09,1.75-.36,3.77-1.91,1.52-1.18,2.94-1.52,4.85-1.65,1.24-.07,4.29-.34,7.74-.59.65-.05.73.65.36,1.09-1.25,1.45-4.57,3.34-6.9,4.71-2.7,1.09-4.09,2.63-7.17,3.27-2.71.56-4.77.65-6.47.67-1.09,0-.62.69.09.99.62.27,4.06,3.75,4.06,3.75,0,0,1.18,1.26,3.42.53,2.25-.73,7.36-3.04,12.2-5.63,3.06-1.63,4.29-2.99,4.97-4.25.61-1.18.98-2.46,1.01-3.42.04-1.18-.36-2.29,1.38-2.17,2.8-.09,5.37.03,6.43.33,3.15.88,3.69,1.06,4.95,1.05,1.25,0,2.6-.53,3.22-1.72.89-1.71,1.75-2.41,2.31-3.88.45-1.17-.18-1.08-.99-.45-.66.52-13.12.52-14.28.61-1.17.1-2.24-.42-.55-1.52,1.79-1.17,2.59-2.98,3.58-3.17,1-.18.77-1.05.77-1.05.62.1,1.34.08,1.93-.04,1.25-.28,1.14-.16,3.68-1.18.89-.36,1.78-1.36,3.04-2.44,1.26-1.09,1.34-2.71,1.33-4.05,0-1.35-1.86-3.92-3.79-4.38-2.75-.65-4.17-.12-6.74.18-.11-.22-.11-.56.08-.77.53-.64,1.16-1.36,2.78-1.72,1.6-.37,1.78-1.54,1.06-2.89-.73-1.34-3.26-3.22-4.7-3.39s-.62,1.18-.8,1.98c0,0-1.25,1.35-3.66,4.24-1,1.2-1.95,2.46-3.02,3.14-1.04.23-.71-.37-.75-.51-.27-1.08.16-2.24.16-2.24l1.98-1.81s.35-1.8-.11-2.25c-.45-.45-.63-1.43-2.96-1.69s-3.95-.25-5.31.21c-1.35.45-.71,1.26-.08,1.43,0,0,.46,2.25.46,3.06s.11,3.69.12,4.14c0,.12-.18.34-.29.44-.61.1-1.47.23-2.12.34-.4.08-.5-.35-.65-.49-.37-.36-.01-1.98-.56-2.96-.56-.99-2.62-3.41-3.7-3.67s-3.87-.6-4.04.84c-.12.98,1.89,1.6,2.36,2.59.45.98,2.08,2.77,1.82,3.5-.12.32-.42.84-.87.9-2.81.34-3.2.36-5.34-.24-1.26-.35-2.52-.34-2.78.37-.27.72-.36,1.26,0,2.07s1.02,6.06,1.03,8.09c.02,1.26.74,2.87,2.17,2.86,1.35,0,2.6-1.45,2.87-2.26.26-.81.27-4.63.36-5.52.08-.9.95-1.04,1.67-1.14.72-.09,5.84-1.57,11.67-1.95,5.84-.39,10.95-1.22,13.13.02,1.26.72.69,1.9.11,3.24-.61,1.41-1.46,2.52-2.1,3.11l-2.92-3.08-1.26-.53s-.54.54-3.15.83c-1.67.18-8.8.58-11.5.32,0,0-1.98.46-2.6,1.27-.68.87-1.98,1.09-2.78,2.99,0,0-.08,1.17.65,2.15.72.98,3.5.88,3.5.88,0,0,.63-.63,2.68-2.08,2.06-1.45,3.58-1.65,4.76-1.91,1.25-.27,3.05-.02,3.77-.11.72-.09,1.36.72,1.08,1.53-.26.81-.88,2.16-1.32,3.06"/>
      <path d="M474.28,26.32c-.27.45-1.23.6-1.56.37-1.43-1.03-2.11-1.48-3.57-1.69-1.82-.26-1.82,1.09-.89,1.8.81.63,1.92,1.71.72,1.77-3.53.18-9.23.16-10.06.16-.36,0-1.25-.49-2.25-.3-.8.15-1.7.77-1.7.77,0,0-1.7,2.18-2.5,3.16-.81,1-.97,2.25.01,2.97.99.71,1.99,1.07,2.71.97.72-.09,1.75-.36,3.76-1.91,1.53-1.18,2.95-1.52,4.85-1.65,1.24-.07,4.29-.34,7.74-.59.66-.05.74.65.36,1.09-1.26,1.45-4.57,3.34-6.9,4.71-2.7,1.09-4.08,2.63-7.18,3.27-2.7.56-4.76.65-6.47.67-1.08,0-.62.69.09.99.64.27,4.07,3.75,4.07,3.75,0,0,1.17,1.26,3.41.53,2.26-.73,7.37-3.04,12.2-5.63,3.06-1.63,4.3-2.99,4.98-4.25.61-1.18.98-2.46,1.01-3.42.04-1.18-.36-2.29,1.39-2.17,2.81-.09,5.37.03,6.43.33,3.15.88,3.69,1.06,4.96,1.05,1.25,0,2.6-.53,3.22-1.72.89-1.71,1.76-2.41,2.32-3.88.45-1.17-.19-1.08-1-.45-.67.52-13.12.52-14.28.61-1.18.1-2.24-.42-.56-1.52,1.79-1.17,2.58-2.98,3.58-3.17,1-.18.76-1.05.76-1.05.63.1,1.34.08,1.93-.04,1.26-.28,1.14-.16,3.69-1.18.89-.36,1.78-1.36,3.04-2.44,1.26-1.09,1.34-2.71,1.34-4.05-.01-1.35-1.86-3.92-3.8-4.38-2.74-.65-4.17-.12-6.73.18-.12-.22-.11-.56.08-.77.53-.64,1.16-1.36,2.78-1.72,1.61-.37,1.78-1.54,1.06-2.89-.73-1.34-3.26-3.22-4.7-3.39s-.62,1.18-.81,1.98c0,0-1.24,1.35-3.66,4.24-1,1.2-1.95,2.46-3.01,3.14-1.04.23-.71-.37-.75-.51-.27-1.08.16-2.24.16-2.24l1.97-1.81s.35-1.8-.1-2.25-.63-1.43-2.97-1.69-3.96-.25-5.31.21c-1.35.45-.71,1.26-.07,1.43,0,0,.45,2.25.45,3.06s.11,3.69.12,4.14c0,.12-.19.34-.29.44-.62.1-1.48.23-2.11.34-.41.08-.51-.35-.65-.49-.37-.36,0-1.98-.56-2.96-.55-.99-2.62-3.41-3.7-3.67-1.09-.26-3.87-.6-4.05.84-.11.98,1.9,1.6,2.36,2.59.45.98,2.07,2.77,1.82,3.5-.12.32-.42.84-.86.9-2.82.34-3.2.36-5.34-.24-1.26-.35-2.52-.34-2.78.37-.28.72-.35,1.26.01,2.07.35.81,1.01,6.06,1.02,8.09.01,1.26.74,2.87,2.17,2.86,1.35,0,2.6-1.45,2.87-2.26.26-.81.27-4.63.36-5.52.08-.9.95-1.04,1.67-1.14.72-.09,5.84-1.57,11.68-1.95,5.84-.39,10.93-1.22,13.13.02,1.25.72.68,1.9.09,3.24-.6,1.41-1.46,2.52-2.11,3.11l-2.92-3.08-1.26-.53s-.53.54-3.14.83c-1.67.18-8.81.58-11.5.32,0,0-1.98.46-2.6,1.27-.68.87-1.98,1.09-2.78,2.99,0,0-.08,1.17.65,2.15.72.98,3.5.88,3.5.88,0,0,.63-.63,2.68-2.08,2.07-1.45,3.59-1.65,4.77-1.91,1.25-.27,3.05-.02,3.77-.11s1.36.72,1.08,1.53c-.26.81-.89,2.16-1.32,3.06"/>
      <path d="M505.84,16.69c-.09.9.09,1.35.91,1.07,2.59-.88,3.03-3.7,3.39-5.23.35-1.53.08-1.87-.37-1.8-2.43.37-3.15.56-3.6,1.01-.44.45-.26.45-.26,1.26s-.07,3.68-.07,3.68h0ZM505.78,21.99c0,.99-.77,6.66-.32,8.55.13.53.19.81,1.54.53.62-.13,2.06-.91,2.77-1.54.72-.64,1.52-1.27.99-2.88-.55-1.62-2.19-5.21-4.17-5.55,0,0-.8.27-.8.9h-.01ZM516.51,10.35s.59-1.05,1.95-1.82c1.14-.63,2.61-.1,4.6-.11.72,0,2.52.17,2.24-1.09-.22-1.03-.2-3.14-1.46-3.23-1.28-.08-.18-1.43.89-1.98s4.13-.92,5.31-.39c1.16.54,1.9,3.95,2.63,4.76.72.8.82.8,2.61.79,1.8,0,5.66.52,6.3.59.71.09,2.52,2.42,2.71,3.59.18,1.17-.26,1.26-1.33,3.15-1.07,1.9-3.19,2.76-4.02,3.67-.01.55.44.84-.99,3.01-.46.69-1.44,1.27-2.7,1.45-1.88.28-2.6-.07-2.6-.07,0,0-3.6-.07-5.48.38-1.89.47-3.58,1.07-5.02,1.02-1.99-.08-2.27-1.96-2.27-1.96,0,0-1.88.72-2.97-.35-.86-.84-.98-1.72-.82-2.96.26-2.07.84-5.11.6-6.21-.99,1.36-4.21,4.97-4.83,5.6-.62.64-2.33,1.37-.61,2.25.95.5,3.61,4.02,4.97,5.82.66.87.9,1.57.79,2.31.17-.72.56-1.14.56-1.14.53-.99.71-2.16,1.7-1.9.99.27,2.26.53,4.41.07,2.16-.46,3.06-.85,6.29-1.2,3.25-.36,4.92.86,7.65.36,1.7-.31,3.14.31,5.39-.43,1.18-.38,1.17.08.64,1.35-.64,1.49-1.87,3.78-5.2,3.89-2.12.07-2.4-.84-4.46-.72-.51.18-.99.2-1.2.47-.45.54-.43,2.25-.43,2.25,0,0,.16,4.99.83,6.02,1.79,2.73,5.14,2.17,7.8,1.46,1.78-.47,3.42-.81,3.54-.98.88-1.51,1.15-.55,1.07.08-.17,1.35-.08,1.98-.07,3.41.01,1.09-1.06,2.44-1.06,2.44,0,0-3.31,3.16-7.89,2.65-4.6-.52-6.76-3.03-7.4-4.99-.64-1.98-.14-9.62-.42-11.24,0-.31-.17-.71-.43-.68-.61.07-.6.09-1.17.19.32.64.23,1.51-.27,2.02-.63.64-2.13,5.23-2.94,6.58-.8,1.36-1.33,4.33-3.75,5.69s-4.95-.43-5.84-1.23c-.91-.8-.91-1.25-1.01-1.53-.09-.26-1.25-.35.9-.63,2.16-.28,2.75-.71,4.21-1.73,1.44-1,3.31-2.98,3.85-4.34.43-1.11,1.02-3.9.21-4-1.31.17-2.59.19-3.48-.12-1.36-.47-1.87-.31-2.66-.52-.16.24-.39.64-.56.9-.9,1.26-3.4,2.53-4.57,3.08-.63.29-3.23,1.63-4.97,1.94-.36.06-.76.72-.76.97,0,.28-.26,2.61-.61,4.86-.34,2.24-1.79,2.71-2.14,2.53-.36-.17-1.44-.17-2.44-1.87-.99-1.71-.65-5.49.59-7.83,1.25-2.34.59-6.75.84-10.79.25-4.05.13-9.98-.14-10.88s-1.63-1.79-2.07-1.97c-.46-.17-.28-.98.25-1.71.53-.72,1.7-1.89,2.15-2.61,0,0,.53-.63.88-1.08,0,0,.82.36,1.28.99.57.79,1.17.36,2.7.35,1.53,0,2.15-.1,2.69-.47.55-.36,2.07-.64,3.24-.56,1.17.09,3.25,3.49,3.25,3.49,0,0,.29.38.56.91l-.04-.02ZM523.1,18.94c2.44-.37,4.42.13,6.39-.12,2.16-.29,4.04-.11,4.04-.11,0,0,1.43-.02,1.79-.82.45-1,2.06-3.43,2.06-3.43,0,0,.05-1.08-.46-1.89-.45-.72-3.69-1.06-6.75-.59-2.94.44-5.58.2-6.66.57-1.07.37-2.23.91-2.13,2.09.09,1.17-.07,3.69-.24,4.94,0,0-.24-.29,1.97-.63h0Z"/>
      <path d="M196.91,15.75c.03-2.71,2.05-3.71,3.84-4.7,2.68-1.49,5.32-.83,8.8-1.22,4.22-.48,6.44-.97,4.84-3.35-.91-1.34-1.91-4.04-.02-4.95,2.13-1.03,4.38-.29,6.39,2.58.82,1.16,2.11,3.4,2.81,4.3.9,1.16,4.77,1.05,9.35,1.13,4.59.06,7.55-.05,7.55-.05v1.08s-2.68,2.44-3.21,3.97c-.53,1.53-1.4,2.01-4.12,1.82-7.2-.5-11.7-1.91-20.33-1.51-2.16.37-6.45.41-8.71,2.38-2.06,1.82-7.26,4-7.2-1.48h0Z"/>
      <path d="M226.13,32.57c-1.49.07-3.16.04-4.82,0-.86.74-1,4.4-1,5.27,0,1.94.22,3.41.32,4.6.26,2.87-.55,3.4-.55,3.4,0,0-1.08,1.33-1.97,1.18-1.08-.17-2.71-1.15-2.9-4.75-.09-1.71.6-5.49.59-7.02,0-1.33-.27-2.34-.87-2.82-1.15.03-2.21.09-2.91.23-2.06.42-3.02,1.38-3.91,1.9-.3.17-.33.18-.55.19.05.61.19,1.5.52,1.88.63.71,2.16,1.15,1.63,3.04-.41,1.49-.85,3.48-4.65,4.79-4.75,1.65-7.81-1.16-7.81-1.16.26-.52-.46-.32,2.05-1.95,3.38-2.2,4.66-3.26,5.82-4.52.46-.49,1.17-1.48,1.74-2.12-1.79-.49-2.03-.69-2.11-1.3-.09-.72.53-2.07.7-4.05.09-1.02.07-3.6-.84-5.21-.77-1.37-.47-3.6-.02-4.23.99-1.41,1.68-1.74,3.41-1.82,1.17-.05,4.35-.45,7.23-.4,3.6.07,5.28-.35,7.78-.19,2.52.16,6.48.33,7.99.26.54-.02.99.02,1.71-.25,1.76-.68,1.86.29.55,2.42-1.87,3.07-2.21,6.3-.76,9.35.32.67-.96,2.13-2.33,2.62-.74.26-1.69.43-2.77.54,1.61,3.58,7.26,4.93,9.91,5.27,2.63.33,4.09-.62,3.42.97-.98,2.34-2.23,3.34-3.67,4.61-2.97,2.63-4.4,1.37-6.02-.42-1.63-1.79-3.33-4.2-4-6.45-.31-1.09-.71-2.9-.91-3.88v.02ZM212.61,26.45c1.79-.19,2.52-.82,6.91-.58,2.35.13,3.69-.02,4.95.15,1.26.17,1.52-.99,1.61-1.44.09-.45-.45-1.07-.99-1.07s-3.87-.25-7.55-.32c-3.42-.07-4.8.17-5.75,1.02-.72.64-.08,2.34.82,2.24Z"/>
      <g>
        <path d="M279.41,7.05c.45.72.72.99,1.61.99s7.02.05,7.83-.23c.8-.27.35-.9,1.7-.55,1.35.36,3.97,3.13,4.51,3.85s-.35,2.52-.35,2.52c0,0-.8.46-1.97,1s-5.44,4.95-6.7,5.95c-.55.44-1.65,1.35-1.39,1.54.3.22,1.21.64,1.21.64,3.61,3.13,8.57,5.17,9.12,7.14.33,1.18.01,3.15-.61,3.51-.63.37-2.06,1.73-2.68,2-3.11,1.34-8.9,1.84-9.62,1.94-1.98.28-2.07.91-2.07.91,0,.54-.07,3.15-.33,4.32-.26,1.17-1.41,3.78-2.22,3.79-.81,0-2.54-3.04-2.73-4.66-.19-1.62,1.05-5.58.75-11.69-.15-3.06-1.15-14.83-1.35-16.71-.19-1.89-.19-3.33-.11-4.59.08-1.27,1.18-2.76,2.05-3.7,1.25-1.35,2.88,1.33,3.34,2.05v-.02ZM278.95,21.52s.33.08.79,0c.45-.09.94-.86,1.44-1.6.86-1.26,3.11-3.56,4.45-5.45.76-1.06.11-.85-.08-.98-.29-.21-2.23-.1-2.79.02-.91.18-2.32.5-2.94.68-.63.18-.89,1.59-.89,2.66,0,1.72.02,4.67.02,4.67ZM279.06,23.43c0,.44.49,8.43.58,9.24s.09.91.37,1.62c.27.72,1.17.27,1.71-.09.54-.36,3.75-2.63,5.01-3.36s.71-1.8.71-1.8c-1.81-2.23-2.8-3.13-3.25-3.49,0,0-2.22-1.5-3.48-1.62-.34-.04-1.65-.49-1.65-.49h0Z"/>
        <path d="M269.84,15.51c-.58-.21-.1-.71-.05-.94.14-.64-.18-1.08-.18-1.08,1.25-1.22,2.6-.96,3.21-3.75.22-.98-.6-1.98-.6-1.98-.54-.35-1.48-.49-2.15-.34-1.34.27-3.24.51-5.12.74-1.84.23-1.84-.08-2.29-.53s.67-2.12.02-3.55c-.42-.96-1.08-1.71-2.61-2.05-1.46-.34-2.42.23-3.18,1.63-.67,1.22-.4,2.21-.17,3.42.04.19-.22.76-.94.73-.72-.05-2.25-.53-3.15-.17-.9.37-2.51,1.05-3.53,4.24-.5,1.58-.53,2.12.29,2.76.44.35.72,1.12,1.05,1.42-.74,0-1.68.19-2.44.78-2.15,1-1.5,5.05-.96,6.03.25.46,2.34.89,4.58.07,2.25-.82,4.49-.92,4.49-.92v.81s-.7,1.44-2.5,2.89c-1.79,1.45-6.09,4.35-8.33,5.62s-3.68,1.91-3.68,1.91c0,0,.1.72.82.89.72.18,2.97,1.6,4.87,1.68,1.89.08,4.3-1.72,5.11-2.36.8-.63,1.34-.72,1.53.08.19.81.21,5.39-.42,6.39-.63.99-.88,3.69-.6,4.76.28,1.08,2.62.98,3.42.88.81-.09,1.88-.99,1.88-.99,0,0,.72-.27,1.62-.64.9-.36,5.48-.02,6.47-.3.98-.28,2.23-2.17,2.23-3.7s.14-8.08.68-8.9c.53-.81.97-1.89,1.24-3.96.26-2.06-2.53-2.59-3.43-2.68-.9-.08-2.7.02-3.51.11s-1.62.46-.72-.99c.89-1.44,2.19-2.12,2.86-2.35.68-.22,3.6.75,4.58-.38.87-.99,2.26-3.07,1.95-3.78-.3-.73-.8-1.81-2.34-1.47v-.03ZM257.05,16.2c-.38.13-2.23,0-3.61,0,.45-.2.83-.58,1.11-.88,1.21-1.26,3-.87,3-.87,0,0,.36.13.19.67-.15.44-.08.82-.69,1.08ZM260.2,29.63c.54-.18,1.41-.28,1.97-.28,1.53,0,2.34.12,2.43.53.09.4-.17,1.17-.17,1.62s.09.81-.63.81-2.79.16-3.41.29c-1.39.28-1.62-.26-1.62-.49s-.05-1.39.03-1.84c.09-.44.86-.44,1.39-.63h.01ZM259.43,36.55c.8-.29,3.6-.24,4.45-.25.32,0,.14.67.14,1.21s-.08,1.35-.62,1.35-1.26.1-2.97.11c-1.71,0-1.93.1-1.98-.26-.1-.63,0-1.53,0-1.53.13-.58.49-.45.98-.64h0ZM262.39,15.27c-.07-1.34,0-1.58.73-1.64.74-.05,2.23-.09,1.79.5-.46.62-.72.97-1.4,1.23-.33.12-1.1.26-1.11-.08h-.01Z"/>
      </g>
      <g>
        <path d="M314.1,11.31c.56-1.53.45-2.9-.3-3.88-.13-.18-.29-.42-.46-.68-.63-1-1.28-1.84-2.64-2.08-.84-.15-2.3-.89-2.84-.27-.76.89-.39,2.16-.3,2.4.05.13.13.26.25.45.34.55,1.05,1.68,1.1,3.01.08,2.21.17,14.18.02,15.06-.19.63-.37.96-.88,1.14-.37.13-.79.24-1.16.32-.02-1.13,0-2.41.12-2.8.27-.86.59-4.35-.1-5.87-.56-1.26-1.1-4.04-3.38-4.43-.8-.13-2.71-.84-2.93-.64-.57.53.11,1.98.22,2.41.18.7.54,1.5.86,2.21.23.51.58,1.28.58,1.5,0,2.13-.23,7.39-.62,8.11-.62.76-1.64,2.5-1.19,3.86.27.82,1.21,3.52,1.77,3.97.5.4,1.01.55,1.52.44.6-.13,1.11-.63,1.5-1.46.49-1.02,2.39-2.44,3.61-3.17.02,1.94.24,5.25.26,6.96h0c-.22,1.66-.43,2.87-.34,3.6.19,1.62,1.91,4.66,2.73,4.66s1.96-2.62,2.22-3.79c.23-1.05.32-3.26.33-4.09.13-4.69.01-10.75,0-11.14-.22-7.18-.28-14.91.03-15.8h.02Z"/>
        <path d="M339.68,27.22c.31-.54.73-1.18.48-1.6-.38-.63-1.4-1.78-2.04-2.41-.63-.64-1.65-.64-2.29-.38-.53.21-1.14.42-1.33.48-.28-.07-.59-.13-.96-.1-1.33.08-5.89.16-6.86.13-.07,0-2.42-1.65-4.86,1.08-.52.58-1.04,2.18-.56,3.03.07.11.14.22.22.33.3.42.7,1,.7,2.18,0,1.59-.28,3.79-.81,5.11h-.01c-.93,1.2-1.87,2.36-2.56,3.13-1.5,1.68-2.52,2.61-2.52,2.61,0,0,.28.57.93.51.65-.05,2.92.48,4.51,0,1.35-.39,2.54-2.44,3.2-3.39.05-.29.1-.6.14-.85,1.15-.08,3.79-.26,5.03-.21.24,0,.48.02.75.04,1.26.07,2.77.15,4.21-.29-.04.47-.1.91-.15,1.33-.12.93-.05,2.67.03,3.32,0,.04,1.4,3.56,2.34,3.52.59-.02,2.74-1.96,2.83-3.16.09-1.26-.41-3.97-.59-5.19-.18-1.15-.51-5.72-.13-8.01,0,0,.17-.52.29-1.19v-.03ZM326.51,27.65c.89-.44,6.7-.21,8.31-.04,0,.25-.04,1.4-.1,1.76-1.1-.2-2.43-.25-3.93-.29l-.79-.02c-2.02-.06-3.17,0-3.87.1.11-.3.27-1.39.37-1.51h.01ZM330.15,33.4c-1.91,0-3.47.3-4.23.41.02-.12.09-1.31.13-1.42,1.13-.21,3.46-.31,4.55-.13,1.34.21,2.92-.05,4.14-.46.05.48.19,1.77.25,2.22-1.19-.25-3.2-.62-4.83-.62h-.01Z"/>
      </g>
      <path d="M343.91,16.8s-1.7.09-4.33.06c-2.21-.03-4.43-.24-6.64-.15h-.14c0-.1,0-.2-.01-.3-.01-.22-.02-.45-.03-.68,0-.12-.02-.24-.02-.35,1.29.23,2.51.52,4.01.69,1.17.13,1.55-.12,1.8-.97.25-.85,2.31-2.18,2.31-2.18v-.6s-2.14.03-4.12-.05c-1.41-.06-2.82-.21-4.23-.25v-1.46c1.88.2,3.58.5,5.73.65,1.47.1,1.94-.15,2.22-.98.28-.83,3.13-3.76,3.13-3.76v-.58s-3,.06-5.47.03c-2.47-.04-4.74-.19-5.48-.48-.38-.49-.64-1.82-1.08-2.45-1.08-1.55-2.29-1.94-3.45-1.39-1.02.49-.47,1.94.01,2.67.39.58.5,1.08.42,1.5-.44.31-1.78.17-3.03.31-1.88.21-3.3-.15-4.75.65-.97.53-2.06,2.69-2.07,4.14-.03,2.96,2.77,1.78,3.89.8,1.21-1.07,3.53-1.08,4.69-1.28.42-.02.82-.03,1.21-.03,0,.53,0,1.3-.03,1.75-.49.04-1.15,0-1.79.08-1.51.18-2.63-.22-3.8.58-.79.53-1.67,1.06-1.72,2.57-.1,3.05,2.17,1.89,3.08.9,1-1.08,2.84-1.05,3.78-1.23h.56l.05.99c.03.32-.05.65-.07.97-.65.07-1.52.05-2.36.17-1.99.3-3.51-.18-5.04.92-.49.35-1,.7-1.41,1.19.12-1.23-.01-2.52-.88-3.46-.2-.22-2.96-2.62-4.04-2.13-.33.15-.51.48-.47.85.03.26.09.48.16.73.12.46.65,2.06.61,3-.05,1.33,1.02,4.58.03,10.82,0,.03.98,3.1,2.01,3.29.39.08,1.16-.94,1.4-1.15.49-.4,1.21-1.6,1.21-2.73,0-.21.01-.48.03-.8.04-.91.09-2.24-.04-3.8.96.66,2.57-.36,3.36-1.27,1.29-1.46,3.74-1.5,4.98-1.78,4.94-.32,7.53.7,11.65,1.05,1.56.13,2.06-.22,2.35-1.35.3-1.13,1.83-2.94,1.83-2.94v-.79h0Z"/>
      <path d="M393.06,36.79c-.62-.08-1.26-.3-1.89-.42-1.06-.29-2.35-.66-2.69-.82-.05-.06-.12-.13-.23-.24-3.44-3.62-4.29-5.47-4.41-6.38-.07-.56,1.53-1.4,2.06-1.94.79-.82,1.57-1.74,2.61-2.24.92-.45,2.73-1.19,3.6-1.76.56-.37.57-1,.04-1.58-.41-.46-1.53-.3-2.04-.51-.3-.13-.62-.25-.95-.35-.1-.05-.21-.1-.31-.15l.03.07c-.16-.05-.31-.1-.46-.15-.41-.13-.97-.3-1.11-.39-.18-.17-.41-.31-.66-.42,1.1-.34,2.42-.9,3.04-1.28.85-.51,2.01-2.45,2.7-4.82.48-.98,1-2,1.79-2.56.9-.64,1.19-1.73.61-2.79-.82-1.52-4-4.18-5.66-3.79-.28.61-1.07.89-1.7,1.12-.35.08-.74.18-1.25.25-.8.12-2.26.23-3.3.25l-3.68.13c-.33-.03-.63-.06-.92-.08-.82-1.1-2.13-2.69-3.15-2.46-1.58.35-1.46,3.75-1.75,4.91h0c-.29.99-.37,2.24-.28,3.95.03.59.06,1.35.07,2.19-.8,0-1.93-.02-3.31-.08s-2.77-.19-4.15-.29c-.89-.08-1.77-.16-2.57-.24.04-.79.12-1.55.2-1.76.01-.02.02-.04.03-.06,0-.11,0-.22.01-.33.02-.39.04-.79.05-1.19,1.77.18,3.45.41,5.34.55,1.46.11,1.93-.16,2.22-1.03.29-.87,2.15-3.92,2.15-3.92v-.61s-1.6.06-4.07.03c-2.47-.04-5.31-.08-6.06-.38-.38-.51-.64-1.92-1.08-2.59-1.08-1.63-2.29-2.05-3.45-1.46-1.02.52-.47,2.05.02,2.81.38.61.5,1.15.42,1.58-.43.33-1.78.18-3.03.32-1.88.22-3.3-.15-4.75.69-.97.56-2.05,1.13-2.07,2.67-.03,3.12,2.36,3.53,3.46,2.5,1.21-1.12,3.53-1.14,4.69-1.35.66-.03,1.29-.04,1.89-.04-.04.53-.11,1.06-.18,1.58.03.58.07,1.38.11,2.2-.52.03-1.24.07-2.04.14-.47,0-.97.02-1.47.08-2.15.28-3.75-.33-5.42.91-1.13.82-2.38,1.64-2.46,3.96-.15,4.7,3.09,2.9,4.38,1.38.13-.15.28-.28.44-.4.01,0,.02,0,.04,0,.55-.2,1.13-.4,1.36-.4.32,0,.8.14.86.53.16,1.03.28,2.43.27,3.12h-.03c-.82.04-1.6.09-2.31.2-1.29.04-2.41,0-3.53.85-1.05.77-2.24,1.55-2.24,3.65-.01,4.25,3.04,2.54,4.24,1.13,1.33-1.54,3.84-1.58,5.11-1.87.65-.04,1.26-.06,1.84-.06v.03c.12.64.34,1.26.46,1.9.02.05.03.1.05.14-.48.02-1,.04-1.51.13-1.8.31-3.17-.2-4.55.98-.92.78-1.96,1.57-1.97,3.69-.01,4.3,2.67,2.57,3.73,1.14.29-.38.65-.68,1.03-.9,1.17-.17,2.38-.38,3.31-.58-.21,1.55-1.14,3.25-1.96,3.68-.97.51-2.23,1.16-3.74,1.5-1.85.24-3.19,0-4.23.03.61,1.13,1.38,2.27,2.27,3.54.77,1.08,2.22,1.69,3.77,1.62,1.46-.08,2.49-.39,3.7-1.82.16-.18.34-.39.54-.61,1.26-1.41,3.17-3.53,3.9-6.34.18-.73.21-1.29.23-1.67.7-.04,1.7.03,1.98.13.76.27,1.38.35,1.87.32.74.13,1.52.25,2.36.34,1.41.14,1.85-.23,2.12-1.43.21-.93,1.08-2.28,1.46-2.85-.04,3.15-.13,6.52-.4,7.4-.61,1.96-.51,2.54-.11,3.59.17.45.54,1.28.9,2.09.26.58.57,1.31.62,1.45.16.46.79,1.44,1.35,1.47.61.03,1.18-.94,1.49-1.65.04-.11.2-.35.33-.58.69-1.14,1.25-2.14,1.05-3-.11-.54-.29-5.4-.41-9.88.08,0,.18,0,.31.04.72.34,4.39,4.4,6.17,7.14,1.48,2.27,3.87,3.74,5.44,4.28,1.18.62,2.38.77,3.65-.3,1.73-1.44,1.74-3.71,2.89-5.44-1.05-.08-2.11-.02-3.14-.15l.02.02ZM358.74,22.67c.04-.47.09-1,.09-1.49,0-.37-.03-.73-.06-1.04-.02-.21-.04-.53-.04-.76,1.49-.04,2.75,0,3.9.07-.02.25-.08.59-.13.85-.07.34-.14.69-.18,1.05-.06.58-.11,1.22-.14,1.72-.32,0-.63,0-.95,0-.33.02-.67.04-1,.06-.6,0-1.15-.03-1.54-.04.01-.14.02-.29.04-.42h.01ZM373.05,22.86c-.07,1.15-.09,3.13-.11,5.24,0,.36-.01.73-.01,1.11-.45.02-1.8.08-3.74.05-1.99-.03-4-.26-6-.17h-.06c-.03-.36-.04-.83,0-1.14.28,0,.67.03,1.1.04,1.25.21,2.53.42,4,.55,1.6.14,2.11-.23,2.41-1.42s1.88-3.09,1.88-3.09v-.84s-1.21.06-3.16.06c-.23,0-.56-.02-.92-.02-.55,0-1.68-.03-2.29-.12.25-1.16.54-2.36.79-3.17.9.13,1.85.26,2.94.39,1.67.2,2.21-.19,2.56-1.49.13-.47.43-1.04.77-1.58,0,1.93-.05,3.97-.14,5.61h-.02ZM382.47,22.76c-.36.21-.72.43-1,.64-.21.16-.5.39-.84.66-.65.51-2.01,1.57-2.33,1.72-.06,0-.23.02-.46,0-.02-5.24.02-13.02.21-14.07.2-.39.72-.77,1.48-.77.54,0,1.41-.08,2.34-.17.88-.08,1.98-.18,2.32-.15.15,0,.44.09.74.17.59.16,1.33.34,2.08.35-.26,1.24-.92,2.77-2,3.06-.6.16-1.27.32-1.91.47-1.78.43-3.37.19-3.89.5-1.2.72,4.02,5.7,5.49,4.61-.75.55-1.12,1.51-1.18,2.27-.18.18-.72.5-1.05.7Z"/>
    </g>
    <g>
      <path class="cls-1" d="M201.35,69.1v-11.89h-4.44v-1.59h10.69v1.59h-4.46v11.89h-1.79Z"/>
      <path class="cls-1" d="M209.26,69.1v-13.48h1.66v4.84c.77-.9,1.75-1.34,2.92-1.34.72,0,1.35.14,1.88.43s.91.68,1.14,1.18.35,1.23.35,2.19v6.19h-1.66v-6.19c0-.83-.18-1.43-.54-1.81s-.87-.57-1.52-.57c-.49,0-.95.13-1.38.38-.43.25-.74.6-.92,1.04-.19.43-.28,1.04-.28,1.8v5.34h-1.66,0Z"/>
      <path class="cls-1" d="M226.39,65.96l1.71.21c-.27,1-.77,1.78-1.5,2.33s-1.66.83-2.79.83c-1.43,0-2.56-.44-3.4-1.32s-1.25-2.11-1.25-3.7.42-2.92,1.27-3.82,1.94-1.36,3.29-1.36,2.37.44,3.2,1.33,1.24,2.14,1.24,3.75v.44h-7.28c.06,1.07.36,1.89.91,2.46.54.57,1.23.86,2.04.86.61,0,1.12-.16,1.55-.48.43-.32.77-.83,1.02-1.53h-.01ZM220.95,63.28h5.45c-.07-.82-.28-1.44-.62-1.85-.53-.64-1.21-.96-2.05-.96-.76,0-1.4.25-1.92.76s-.8,1.19-.86,2.04h0Z"/>
      <path class="cls-1" d="M235.43,69.1v-13.48h1.78v6.69l6.7-6.69h2.42l-5.66,5.46,5.91,8.02h-2.35l-4.8-6.83-2.21,2.15v4.67h-1.79Z"/>
      <path class="cls-1" d="M246.73,72.86l-.18-1.55c.36.1.68.15.95.15.37,0,.66-.06.88-.19s.4-.29.54-.51c.1-.17.27-.58.51-1.23.03-.09.08-.23.15-.4l-3.71-9.79h1.79l2.03,5.66c.26.72.5,1.47.71,2.26.19-.76.42-1.5.68-2.22l2.09-5.69h1.66l-3.71,9.93c-.4,1.07-.71,1.81-.93,2.22-.3.55-.63.95-1.01,1.2s-.83.38-1.36.38c-.32,0-.67-.07-1.07-.2l-.02-.02Z"/>
      <path class="cls-1" d="M255.35,64.22c0-1.81.5-3.15,1.51-4.02.84-.72,1.86-1.09,3.07-1.09,1.34,0,2.44.44,3.29,1.32s1.28,2.1,1.28,3.65c0,1.26-.19,2.25-.57,2.97s-.93,1.28-1.65,1.68-1.51.6-2.36.6c-1.37,0-2.47-.44-3.32-1.32-.84-.88-1.27-2.14-1.27-3.79h.02ZM257.05,64.22c0,1.25.27,2.19.82,2.81.55.62,1.23.93,2.06.93s1.5-.31,2.05-.94c.54-.62.82-1.58.82-2.86,0-1.21-.27-2.12-.82-2.75-.55-.62-1.23-.93-2.04-.93s-1.51.31-2.06.93-.82,1.55-.82,2.8h0Z"/>
      <path class="cls-1" d="M269.89,67.62l.24,1.46c-.47.1-.88.15-1.25.15-.6,0-1.07-.09-1.4-.28s-.56-.44-.7-.75-.2-.96-.2-1.95v-5.62h-1.21v-1.29h1.21v-2.42l1.65-.99v3.41h1.67v1.29h-1.67v5.71c0,.47.03.78.09.91.06.14.15.24.29.32s.32.12.56.12c.19,0,.43-.02.73-.06h0Z"/>
      <path class="cls-1" d="M270.75,64.22c0-1.81.5-3.15,1.51-4.02.84-.72,1.86-1.09,3.07-1.09,1.34,0,2.44.44,3.29,1.32s1.28,2.1,1.28,3.65c0,1.26-.19,2.25-.56,2.97-.38.72-.93,1.28-1.65,1.68s-1.51.6-2.36.6c-1.37,0-2.47-.44-3.32-1.32-.84-.88-1.26-2.14-1.26-3.79h0ZM272.45,64.22c0,1.25.27,2.19.82,2.81.54.62,1.23.93,2.06.93s1.51-.31,2.05-.94c.55-.62.82-1.58.82-2.86,0-1.21-.27-2.12-.82-2.75-.55-.62-1.23-.93-2.05-.93s-1.51.31-2.06.93-.82,1.55-.82,2.8h0Z"/>
      <path class="cls-1" d="M296.79,64.37l1.79.45c-.37,1.46-1.05,2.58-2.02,3.35s-2.16,1.16-3.56,1.16-2.63-.3-3.55-.89c-.91-.59-1.6-1.45-2.08-2.57s-.71-2.33-.71-3.61c0-1.4.27-2.63.8-3.67.54-1.05,1.3-1.84,2.29-2.38.99-.54,2.08-.81,3.27-.81,1.35,0,2.48.34,3.4,1.03.92.69,1.56,1.65,1.92,2.9l-1.76.41c-.31-.98-.77-1.69-1.36-2.14s-1.34-.67-2.24-.67c-1.04,0-1.9.25-2.6.74s-1.19,1.16-1.47,2-.42,1.7-.42,2.59c0,1.15.17,2.15.5,3,.33.86.85,1.49,1.56,1.92.7.42,1.47.63,2.29.63,1,0,1.84-.29,2.54-.86.69-.57,1.16-1.43,1.41-2.56v-.02Z"/>
      <path class="cls-1" d="M300.1,64.22c0-1.81.5-3.15,1.51-4.02.84-.72,1.86-1.09,3.07-1.09,1.34,0,2.44.44,3.29,1.32s1.28,2.1,1.28,3.65c0,1.26-.19,2.25-.56,2.97-.38.72-.93,1.28-1.65,1.68s-1.51.6-2.36.6c-1.37,0-2.47-.44-3.32-1.32-.84-.88-1.26-2.14-1.26-3.79h0ZM301.8,64.22c0,1.25.27,2.19.82,2.81.54.62,1.23.93,2.06.93s1.51-.31,2.05-.94c.55-.62.82-1.58.82-2.86,0-1.21-.27-2.12-.82-2.75-.55-.62-1.23-.93-2.05-.93s-1.51.31-2.06.93-.82,1.55-.82,2.8h0Z"/>
      <path class="cls-1" d="M311.18,69.1v-13.48h1.66v13.48h-1.66Z"/>
      <path class="cls-1" d="M315.29,69.1v-13.48h1.66v13.48h-1.66Z"/>
      <path class="cls-1" d="M326.18,65.96l1.71.21c-.27,1-.77,1.78-1.5,2.33s-1.66.83-2.79.83c-1.43,0-2.56-.44-3.4-1.32s-1.25-2.11-1.25-3.7.42-2.92,1.27-3.82,1.94-1.36,3.29-1.36,2.37.44,3.2,1.33c.83.89,1.24,2.14,1.24,3.75v.44h-7.28c.06,1.07.36,1.89.91,2.46.54.57,1.23.86,2.04.86.61,0,1.12-.16,1.55-.48s.77-.83,1.02-1.53h0ZM320.74,63.28h5.45c-.07-.82-.28-1.44-.62-1.85-.53-.64-1.21-.96-2.05-.96-.76,0-1.4.25-1.92.76-.52.51-.8,1.19-.86,2.04h0Z"/>
      <path class="cls-1" d="M329.7,69.91l1.61.24c.07.5.25.86.56,1.09.41.31.97.46,1.68.46.77,0,1.36-.15,1.77-.46.42-.31.7-.74.85-1.29.09-.34.13-1.04.12-2.13-.72.85-1.62,1.28-2.7,1.28-1.34,0-2.38-.48-3.12-1.45-.74-.97-1.1-2.13-1.1-3.48,0-.93.17-1.79.51-2.58s.83-1.4,1.47-1.82c.64-.43,1.39-.64,2.26-.64,1.15,0,2.1.47,2.85,1.4v-1.18h1.53v8.44c0,1.52-.15,2.6-.46,3.23-.31.64-.8,1.14-1.47,1.5-.67.37-1.5.55-2.48.55-1.17,0-2.11-.26-2.82-.79-.72-.52-1.06-1.31-1.04-2.37h-.02ZM331.07,64.04c0,1.28.25,2.22.76,2.8.51.59,1.15.88,1.91.88s1.4-.29,1.91-.88.77-1.5.77-2.75-.27-2.1-.8-2.71-1.17-.91-1.92-.91-1.36.3-1.88.9c-.51.6-.77,1.48-.77,2.66h.02Z"/>
      <path class="cls-1" d="M347.17,65.96l1.71.21c-.27,1-.77,1.78-1.5,2.33s-1.66.83-2.79.83c-1.43,0-2.56-.44-3.4-1.32s-1.25-2.11-1.25-3.7.42-2.92,1.27-3.82,1.94-1.36,3.29-1.36,2.37.44,3.2,1.33c.83.89,1.24,2.14,1.24,3.75v.44h-7.28c.06,1.07.36,1.89.91,2.46.54.57,1.23.86,2.04.86.61,0,1.12-.16,1.55-.48s.77-.83,1.02-1.53h0ZM341.73,63.28h5.45c-.07-.82-.28-1.44-.62-1.85-.53-.64-1.21-.96-2.05-.96-.76,0-1.4.25-1.92.76-.52.51-.8,1.19-.86,2.04h0Z"/>
      <path class="cls-1" d="M355.46,64.22c0-1.81.5-3.15,1.51-4.02.84-.72,1.86-1.09,3.07-1.09,1.34,0,2.44.44,3.29,1.32s1.28,2.1,1.28,3.65c0,1.26-.19,2.25-.57,2.97s-.93,1.28-1.65,1.68-1.51.6-2.36.6c-1.37,0-2.47-.44-3.32-1.32-.84-.88-1.27-2.14-1.27-3.79h.02ZM357.16,64.22c0,1.25.27,2.19.82,2.81.55.62,1.23.93,2.06.93s1.5-.31,2.05-.94c.54-.62.82-1.58.82-2.86,0-1.21-.27-2.12-.82-2.75-.55-.62-1.23-.93-2.04-.93s-1.51.31-2.06.93-.82,1.55-.82,2.8h0Z"/>
      <path class="cls-1" d="M366.8,69.1v-8.48h-1.46v-1.29h1.46v-1.04c0-.66.06-1.14.17-1.46.16-.43.44-.78.84-1.04.4-.27.96-.4,1.69-.4.47,0,.98.06,1.54.17l-.25,1.44c-.34-.06-.67-.09-.97-.09-.5,0-.86.11-1.07.32-.21.21-.31.62-.31,1.2v.9h1.9v1.29h-1.9v8.48h-1.65,0Z"/>
      <path class="cls-1" d="M383.28,63.81v-1.58h5.71v4.99c-.88.7-1.78,1.22-2.71,1.58-.93.35-1.89.53-2.87.53-1.32,0-2.53-.28-3.61-.85s-1.9-1.39-2.45-2.46c-.55-1.07-.83-2.27-.83-3.6s.27-2.54.82-3.67c.55-1.14,1.34-1.98,2.37-2.53,1.03-.55,2.22-.83,3.56-.83.98,0,1.86.16,2.64.47.79.32,1.41.76,1.85,1.32.45.56.79,1.3,1.02,2.21l-1.61.44c-.2-.69-.45-1.23-.75-1.62s-.73-.71-1.29-.94c-.56-.24-1.18-.35-1.86-.35-.82,0-1.52.12-2.12.37-.59.25-1.07.57-1.44.98-.36.41-.65.85-.85,1.33-.34.83-.51,1.74-.51,2.71,0,1.2.21,2.21.62,3.02s1.02,1.41,1.81,1.8,1.63.59,2.52.59c.77,0,1.53-.15,2.26-.45.74-.3,1.29-.61,1.67-.95v-2.51h-3.96,0Z"/>
      <path class="cls-1" d="M391.54,69.1v-9.77h1.49v1.48c.38-.69.73-1.15,1.05-1.37s.68-.33,1.06-.33c.56,0,1.12.18,1.7.53l-.57,1.54c-.41-.24-.81-.36-1.21-.36-.36,0-.69.11-.98.33s-.49.52-.62.91c-.19.59-.28,1.23-.28,1.93v5.11h-1.66.02Z"/>
      <path class="cls-1" d="M404.21,67.9c-.61.52-1.2.89-1.77,1.1-.57.21-1.17.32-1.83.32-1.07,0-1.9-.26-2.47-.79s-.86-1.19-.86-2.01c0-.48.11-.91.33-1.31.22-.4.5-.71.86-.95.35-.24.75-.42,1.19-.54.32-.09.82-.17,1.47-.25,1.34-.16,2.32-.35,2.95-.57,0-.23.01-.37.01-.43,0-.67-.16-1.15-.47-1.43-.42-.37-1.05-.56-1.88-.56-.78,0-1.35.14-1.72.41-.37.27-.65.75-.82,1.45l-1.62-.22c.15-.69.39-1.25.73-1.68s.82-.75,1.46-.98c.64-.23,1.38-.35,2.22-.35s1.51.1,2.03.29c.52.2.9.44,1.15.74.25.3.42.67.51,1.13.06.28.08.79.08,1.53v2.21c0,1.54.04,2.51.11,2.92.07.41.21.8.42,1.17h-1.73c-.17-.34-.28-.75-.33-1.2h-.02ZM404.08,64.2c-.6.25-1.5.45-2.7.63-.68.1-1.16.21-1.44.33s-.5.3-.65.54-.23.5-.23.79c0,.44.17.81.5,1.1s.82.44,1.47.44,1.2-.14,1.7-.42.86-.66,1.09-1.14c.18-.37.27-.93.27-1.66v-.61h0Z"/>
      <path class="cls-1" d="M414.57,69.1v-1.23c-.62.97-1.53,1.45-2.73,1.45-.78,0-1.49-.22-2.15-.64s-1.16-1.03-1.52-1.8c-.36-.77-.54-1.65-.54-2.65s.16-1.86.49-2.65c.32-.79.81-1.4,1.46-1.83.65-.42,1.38-.63,2.18-.63.59,0,1.11.12,1.57.37.46.25.83.57,1.12.97v-4.84h1.65v13.48h-1.54.01ZM409.34,64.23c0,1.25.26,2.19.79,2.8.53.62,1.15.93,1.87.93s1.34-.3,1.84-.89c.51-.59.76-1.49.76-2.71,0-1.33-.26-2.32-.77-2.94-.52-.63-1.15-.94-1.9-.94s-1.35.3-1.84.9-.74,1.55-.74,2.84h-.01Z"/>
      <path class="cls-1" d="M425.01,69.1v-1.43c-.76,1.1-1.79,1.66-3.1,1.66-.57,0-1.11-.11-1.61-.33s-.87-.5-1.11-.83-.41-.74-.51-1.23c-.07-.32-.1-.84-.1-1.54v-6.05h1.66v5.42c0,.86.03,1.45.1,1.75.1.44.32.78.66,1.03s.75.37,1.25.37.96-.13,1.4-.38.74-.6.92-1.04c.18-.44.27-1.07.27-1.91v-5.23h1.66v9.77h-1.48v-.03Z"/>
      <path class="cls-1" d="M435.38,67.9c-.61.52-1.2.89-1.77,1.1-.57.21-1.18.32-1.83.32-1.07,0-1.9-.26-2.47-.79-.58-.53-.86-1.19-.86-2.01,0-.48.11-.91.33-1.31.22-.4.5-.71.85-.95s.75-.42,1.19-.54c.33-.09.82-.17,1.47-.25,1.34-.16,2.32-.35,2.95-.57v-.43c0-.67-.16-1.15-.47-1.43-.42-.37-1.05-.56-1.89-.56-.78,0-1.35.14-1.72.41-.37.27-.64.75-.82,1.45l-1.62-.22c.15-.69.39-1.25.73-1.68s.82-.75,1.46-.98c.64-.23,1.38-.35,2.22-.35s1.51.1,2.03.29c.52.2.9.44,1.15.74.24.3.42.67.51,1.13.06.28.08.79.08,1.53v2.21c0,1.54.04,2.51.11,2.92.07.41.21.8.42,1.17h-1.73c-.17-.34-.28-.75-.33-1.2h0ZM435.25,64.2c-.6.25-1.5.45-2.7.63-.68.1-1.16.21-1.45.33-.28.12-.5.3-.65.54s-.23.5-.23.79c0,.44.17.81.5,1.1s.82.44,1.47.44,1.2-.14,1.7-.42.86-.66,1.09-1.14c.18-.37.27-.93.27-1.66v-.61h0Z"/>
      <path class="cls-1" d="M442.94,67.62l.24,1.46c-.47.1-.88.15-1.25.15-.6,0-1.07-.09-1.4-.28s-.56-.44-.7-.75-.2-.96-.2-1.95v-5.62h-1.21v-1.29h1.21v-2.42l1.65-.99v3.41h1.67v1.29h-1.67v5.71c0,.47.03.78.09.91.06.14.15.24.29.32s.32.12.56.12c.19,0,.43-.02.73-.06h0Z"/>
      <path class="cls-1" d="M451.07,65.96l1.71.21c-.27,1-.77,1.78-1.5,2.33s-1.66.83-2.79.83c-1.43,0-2.56-.44-3.4-1.32s-1.25-2.11-1.25-3.7.42-2.92,1.27-3.82,1.94-1.36,3.29-1.36,2.37.44,3.2,1.33c.83.89,1.24,2.14,1.24,3.75v.44h-7.28c.06,1.07.36,1.89.91,2.46.54.57,1.23.86,2.04.86.61,0,1.12-.16,1.55-.48s.77-.83,1.02-1.53h0ZM445.63,63.28h5.45c-.07-.82-.28-1.44-.62-1.85-.53-.64-1.21-.96-2.05-.96-.76,0-1.4.25-1.92.76s-.8,1.19-.86,2.04h0Z"/>
      <path class="cls-1" d="M459.58,64.77l1.68-.15c.08.67.27,1.23.56,1.66s.74.78,1.36,1.05c.61.27,1.3.4,2.07.4.68,0,1.28-.1,1.8-.3.52-.2.91-.48,1.16-.83s.38-.74.38-1.16-.12-.79-.37-1.11-.65-.58-1.21-.8c-.36-.14-1.16-.36-2.4-.66s-2.11-.58-2.6-.84c-.64-.34-1.12-.75-1.44-1.25s-.47-1.06-.47-1.68c0-.68.19-1.32.58-1.91.39-.59.95-1.04,1.69-1.35s1.57-.46,2.47-.46c1,0,1.88.16,2.64.48s1.35.8,1.76,1.42c.41.62.63,1.33.66,2.12l-1.71.13c-.09-.85-.4-1.5-.93-1.93-.53-.44-1.32-.65-2.35-.65s-1.87.2-2.36.59c-.49.4-.74.87-.74,1.43,0,.48.17.88.52,1.19.34.31,1.24.63,2.69.96s2.45.62,2.98.86c.78.36,1.36.82,1.74,1.38s.56,1.19.56,1.92-.21,1.39-.62,2.03c-.41.63-1,1.13-1.77,1.48-.77.35-1.64.53-2.6.53-1.22,0-2.24-.18-3.07-.53-.82-.36-1.47-.89-1.94-1.61-.47-.71-.72-1.52-.74-2.42h.02Z"/>
      <path class="cls-1" d="M476.15,67.62l.24,1.46c-.47.1-.88.15-1.25.15-.6,0-1.07-.09-1.4-.28s-.56-.44-.7-.75-.2-.96-.2-1.95v-5.62h-1.21v-1.29h1.21v-2.42l1.65-.99v3.41h1.67v1.29h-1.67v5.71c0,.47.03.78.09.91.06.14.15.24.29.32s.32.12.56.12c.19,0,.43-.02.73-.06h0Z"/>
      <path class="cls-1" d="M484.11,69.1v-1.43c-.76,1.1-1.79,1.66-3.1,1.66-.57,0-1.11-.11-1.61-.33s-.87-.5-1.11-.83-.41-.74-.51-1.23c-.07-.32-.1-.84-.1-1.54v-6.05h1.66v5.42c0,.86.03,1.45.1,1.75.1.44.32.78.66,1.03s.75.37,1.25.37.96-.13,1.4-.38.74-.6.92-1.04c.18-.44.27-1.07.27-1.91v-5.23h1.66v9.77h-1.48v-.03Z"/>
      <path class="cls-1" d="M494.5,69.1v-1.23c-.62.97-1.53,1.45-2.73,1.45-.78,0-1.49-.22-2.15-.64-.65-.43-1.16-1.03-1.52-1.8-.36-.77-.54-1.65-.54-2.65s.16-1.86.49-2.65.81-1.4,1.46-1.83c.65-.42,1.38-.63,2.18-.63.59,0,1.11.12,1.57.37s.83.57,1.12.97v-4.84h1.65v13.48h-1.54,0ZM489.26,64.23c0,1.25.27,2.19.79,2.8.53.62,1.15.93,1.87.93s1.34-.3,1.84-.89c.51-.59.76-1.49.76-2.71,0-1.33-.26-2.32-.77-2.94-.51-.63-1.15-.94-1.9-.94s-1.35.3-1.85.9c-.49.6-.74,1.55-.74,2.84h0Z"/>
      <path class="cls-1" d="M498.52,57.52v-1.9h1.66v1.9h-1.66ZM498.52,69.1v-9.77h1.66v9.77h-1.66Z"/>
      <path class="cls-1" d="M509.4,65.96l1.71.21c-.27,1-.77,1.78-1.5,2.33s-1.66.83-2.79.83c-1.43,0-2.56-.44-3.4-1.32s-1.25-2.11-1.25-3.7.42-2.92,1.27-3.82,1.94-1.36,3.29-1.36,2.37.44,3.2,1.33,1.24,2.14,1.24,3.75v.44h-7.28c.06,1.07.36,1.89.91,2.46.54.57,1.23.86,2.04.86.61,0,1.12-.16,1.55-.48s.77-.83,1.02-1.53h0ZM503.96,63.28h5.45c-.07-.82-.28-1.44-.62-1.85-.53-.64-1.21-.96-2.05-.96-.76,0-1.4.25-1.92.76-.52.51-.8,1.19-.86,2.04h0Z"/>
      <path class="cls-1" d="M512.54,66.19l1.64-.26c.09.66.35,1.16.77,1.51.42.35,1.01.53,1.76.53s1.32-.15,1.69-.46.55-.67.55-1.09c0-.37-.16-.67-.49-.88-.23-.15-.79-.33-1.69-.56-1.21-.31-2.06-.57-2.52-.8-.47-.22-.83-.53-1.07-.93s-.36-.83-.36-1.31c0-.43.1-.84.3-1.21s.47-.68.82-.93c.26-.19.61-.35,1.05-.48s.92-.2,1.43-.2c.77,0,1.44.11,2.02.33s1.01.52,1.28.9c.28.38.47.88.57,1.51l-1.62.22c-.07-.5-.29-.9-.64-1.18-.35-.28-.85-.42-1.49-.42-.76,0-1.3.12-1.63.38-.32.25-.49.54-.49.88,0,.21.07.41.2.58.14.18.35.33.64.44.17.06.65.2,1.46.42,1.17.31,1.99.57,2.45.77s.83.49,1.09.87c.26.38.4.85.4,1.41s-.16,1.07-.48,1.56-.79.86-1.39,1.13-1.29.4-2.06.4c-1.27,0-2.24-.26-2.9-.79-.67-.53-1.09-1.31-1.27-2.34h-.02Z"/>
      <path class="cls-1" d="M528.14,69.1v-8.48h-1.46v-1.29h1.46v-1.04c0-.66.06-1.14.17-1.46.16-.43.44-.78.84-1.04.4-.27.96-.4,1.69-.4.47,0,.98.06,1.54.17l-.25,1.44c-.34-.06-.67-.09-.98-.09-.5,0-.86.11-1.07.32s-.31.62-.31,1.2v.9h1.9v1.29h-1.9v8.48h-1.65.02Z"/>
      <path class="cls-1" d="M532.3,64.22c0-1.81.5-3.15,1.51-4.02.84-.72,1.86-1.09,3.07-1.09,1.34,0,2.44.44,3.29,1.32s1.28,2.1,1.28,3.65c0,1.26-.19,2.25-.57,2.97s-.93,1.28-1.65,1.68-1.51.6-2.36.6c-1.37,0-2.47-.44-3.32-1.32-.84-.88-1.27-2.14-1.27-3.79h.02ZM534.01,64.22c0,1.25.27,2.19.82,2.81.55.62,1.23.93,2.06.93s1.5-.31,2.05-.94c.54-.62.82-1.58.82-2.86,0-1.21-.27-2.12-.82-2.75-.55-.62-1.23-.93-2.04-.93s-1.51.31-2.06.93-.82,1.55-.82,2.8h-.01Z"/>
      <path class="cls-1" d="M543.4,69.1v-9.77h1.49v1.48c.38-.69.73-1.15,1.05-1.37s.68-.33,1.06-.33c.56,0,1.12.18,1.7.53l-.57,1.54c-.41-.24-.81-.36-1.21-.36-.36,0-.69.11-.98.33s-.49.52-.62.91c-.19.59-.28,1.23-.28,1.93v5.11h-1.66.02Z"/>
      <path class="cls-1" d="M555.33,69.1v-13.48h1.79v13.48h-1.79Z"/>
      <path class="cls-1" d="M559.99,69.1v-9.77h1.49v1.39c.72-1.07,1.75-1.61,3.11-1.61.59,0,1.13.11,1.62.32s.86.49,1.11.83.42.75.51,1.22c.06.31.09.84.09,1.61v6.01h-1.66v-5.94c0-.67-.06-1.18-.19-1.51s-.36-.6-.69-.8c-.33-.2-.71-.3-1.15-.3-.7,0-1.31.22-1.83.67-.51.45-.77,1.3-.77,2.55v5.33h-1.66.02Z"/>
      <path class="cls-1" d="M570.71,69.1v-8.48h-1.46v-1.29h1.46v-1.04c0-.66.06-1.14.17-1.46.16-.43.44-.78.84-1.04.4-.27.96-.4,1.69-.4.47,0,.98.06,1.54.17l-.25,1.44c-.34-.06-.67-.09-.97-.09-.5,0-.86.11-1.07.32s-.31.62-.31,1.2v.9h1.9v1.29h-1.9v8.48h-1.65.01Z"/>
      <path class="cls-1" d="M574.87,64.22c0-1.81.5-3.15,1.51-4.02.84-.72,1.86-1.09,3.07-1.09,1.34,0,2.44.44,3.29,1.32s1.28,2.1,1.28,3.65c0,1.26-.19,2.25-.56,2.97-.38.72-.93,1.28-1.65,1.68-.72.4-1.51.6-2.36.6-1.37,0-2.47-.44-3.32-1.32-.84-.88-1.26-2.14-1.26-3.79ZM576.57,64.22c0,1.25.27,2.19.82,2.81.54.62,1.23.93,2.06.93s1.51-.31,2.05-.94c.55-.62.82-1.58.82-2.86,0-1.21-.27-2.12-.82-2.75-.55-.62-1.23-.93-2.05-.93s-1.51.31-2.06.93-.82,1.55-.82,2.8h0Z"/>
      <path class="cls-1" d="M585.97,69.1v-9.77h1.49v1.48c.38-.69.73-1.15,1.05-1.37s.68-.33,1.06-.33c.56,0,1.12.18,1.7.53l-.57,1.54c-.4-.24-.81-.36-1.21-.36-.36,0-.69.11-.98.33s-.49.52-.62.91c-.18.59-.28,1.23-.28,1.93v5.11h-1.66.02Z"/>
      <path class="cls-1" d="M592.49,69.1v-9.77h1.48v1.37c.31-.48.71-.86,1.22-1.16.51-.29,1.09-.44,1.74-.44.72,0,1.32.15,1.78.45.46.3.79.72.98,1.26.77-1.14,1.78-1.71,3.02-1.71.97,0,1.71.27,2.24.8.52.54.78,1.36.78,2.48v6.7h-1.65v-6.15c0-.66-.05-1.14-.16-1.43s-.3-.53-.58-.7c-.28-.18-.61-.27-.99-.27-.69,0-1.26.23-1.71.69s-.68,1.19-.68,2.19v5.68h-1.66v-6.35c0-.74-.14-1.29-.41-1.66-.27-.37-.71-.55-1.32-.55-.47,0-.9.12-1.29.37-.4.25-.68.6-.86,1.07s-.27,1.15-.27,2.04v5.07h-1.66v.02Z"/>
      <path class="cls-1" d="M614.52,67.9c-.61.52-1.2.89-1.77,1.1s-1.17.32-1.83.32c-1.07,0-1.9-.26-2.47-.79-.57-.53-.86-1.19-.86-2.01,0-.48.11-.91.33-1.31.22-.4.5-.71.86-.95.35-.24.75-.42,1.19-.54.32-.09.82-.17,1.47-.25,1.34-.16,2.32-.35,2.95-.57,0-.23.01-.37.01-.43,0-.67-.16-1.15-.47-1.43-.42-.37-1.05-.56-1.88-.56-.78,0-1.35.14-1.72.41-.37.27-.65.75-.82,1.45l-1.62-.22c.15-.69.39-1.25.73-1.68.34-.43.82-.75,1.46-.98s1.38-.35,2.22-.35,1.51.1,2.03.29c.52.2.9.44,1.15.74.25.3.42.67.51,1.13.06.28.08.79.08,1.53v2.21c0,1.54.04,2.51.11,2.92.07.41.21.8.42,1.17h-1.73c-.17-.34-.28-.75-.33-1.2h-.02ZM614.38,64.2c-.6.25-1.5.45-2.7.63-.68.1-1.16.21-1.44.33s-.5.3-.65.54-.23.5-.23.79c0,.44.17.81.5,1.1s.82.44,1.47.44,1.2-.14,1.7-.42.86-.66,1.09-1.14c.18-.37.27-.93.27-1.66v-.61h-.01Z"/>
      <path class="cls-1" d="M622.07,67.62l.24,1.46c-.47.1-.88.15-1.25.15-.6,0-1.07-.09-1.4-.28s-.56-.44-.7-.75-.2-.96-.2-1.95v-5.62h-1.21v-1.29h1.21v-2.42l1.65-.99v3.41h1.66v1.29h-1.66v5.71c0,.47.03.78.09.91s.15.24.28.32.32.12.57.12c.18,0,.43-.02.73-.06h-.01Z"/>
      <path class="cls-1" d="M623.74,57.52v-1.9h1.66v1.9h-1.66ZM623.74,69.1v-9.77h1.66v9.77h-1.66Z"/>
      <path class="cls-1" d="M634.27,65.52l1.63.21c-.18,1.12-.63,2-1.37,2.64-.73.63-1.63.95-2.7.95-1.34,0-2.41-.44-3.22-1.31-.81-.87-1.22-2.13-1.22-3.76,0-1.05.17-1.98.53-2.77.35-.79.88-1.38,1.59-1.78.72-.4,1.49-.59,2.33-.59,1.06,0,1.93.27,2.6.8.67.54,1.11,1.3,1.3,2.29l-1.61.25c-.15-.66-.43-1.15-.81-1.48-.39-.33-.86-.5-1.41-.5-.83,0-1.51.3-2.03.9s-.78,1.54-.78,2.84.25,2.27.75,2.86c.5.59,1.16.89,1.97.89.65,0,1.19-.2,1.63-.6s.71-1.01.83-1.84h-.01Z"/>
      <path class="cls-1" d="M636.99,66.19l1.64-.26c.09.66.35,1.16.77,1.51.42.35,1.01.53,1.76.53s1.32-.15,1.69-.46.55-.67.55-1.09c0-.37-.16-.67-.49-.88-.23-.15-.79-.33-1.69-.56-1.21-.31-2.06-.57-2.52-.8-.47-.22-.83-.53-1.07-.93s-.36-.83-.36-1.31c0-.43.1-.84.3-1.21s.47-.68.82-.93c.26-.19.61-.35,1.05-.48s.92-.2,1.43-.2c.77,0,1.44.11,2.02.33s1.01.52,1.28.9.47.88.57,1.51l-1.62.22c-.07-.5-.29-.9-.64-1.18-.35-.28-.85-.42-1.49-.42-.76,0-1.3.12-1.63.38-.32.25-.49.54-.49.88,0,.21.07.41.2.58.14.18.35.33.64.44.17.06.65.2,1.46.42,1.17.31,1.99.57,2.45.77s.83.49,1.09.87c.26.38.4.85.4,1.41s-.16,1.07-.48,1.56-.79.86-1.39,1.13-1.29.4-2.06.4c-1.27,0-2.24-.26-2.9-.79-.67-.53-1.09-1.31-1.27-2.34h-.02Z"/>
    </g>
  </g>
  <g>
    <g>
      <path class="cls-3" d="M25.39,8.93l-5.54,15.03,7.4,20.49h-10.46l-4.96-14.84-.05,14.84H.89V.94h10.89l.05,19.41,4.41-11.42s9.15,0,9.15,0Z"/>
      <path class="cls-3" d="M51.3,24.41h-10.23v-5.08c0-1.38.06-1.97-.18-2.46-.24-.49-.75-1.15-2.17-1.15-1.27,0-1.89.68-2.1,1.11-.22.43-.33.99-.33,2.48v16.12c0,1.22.05,1.95.43,2.53.39.6.99,1.12,2.25,1.12,1.34,0,1.92-.63,2.27-1.31.32-.62.4-1.49.4-3.26v-4.08h9.67c-.02,2.72-.12,4.77-.31,6.13-.19,1.36-.79,2.76-1.81,4.19s-2.34,2.51-3.98,3.24c-1.64.73-3.66,1.09-6.07,1.09-3.07,0-5.51-.5-7.31-1.5s-3.07-2.4-3.81-4.21c-.75-1.8-1.12-4.36-1.12-7.68v-9.67c0-2.89.31-5.07.92-6.54.61-1.47,1.91-2.78,3.91-3.94,1.99-1.15,4.42-1.73,7.28-1.73s5.27.57,7.28,1.72,3.35,2.59,4.02,4.34,1,5.35,1,8.55h0Z"/>
      <path class="cls-3" d="M79.25,8.93v27.71c0,3.54-.09,5.83-.26,6.86-.17,1.03-.78,2.13-1.82,3.28s-2.49,2.03-4.35,2.64-4.2.91-7.02.91c-3.47,0-6.25-.55-8.35-1.66s-3.19-3.29-3.26-6.55h10.61c0,1.49.57,2.23,1.72,2.23.82,0,1.37-.23,1.63-.68.27-.46.4-1.41.4-2.87v-2.54c-.94.8-1.92,1.41-2.96,1.82-1.03.41-2.12.61-3.25.61-1.96,0-3.58-.38-4.85-1.13-1.27-.76-2.14-1.75-2.6-2.97-.47-1.23-.7-2.97-.7-5.24v-12.41c0-3.24.61-5.58,1.83-7,1.22-1.42,3.09-2.14,5.59-2.14,1.37,0,2.61.27,3.74.8,1.12.53,2.13,1.33,3.01,2.39v-4.06s10.89,0,10.89,0ZM68.36,19.45c0-1.13-.1-2.22-.31-2.65s-.74-1.01-2.2-1.01c-.97,0-1.59.6-1.88,1.1-.29.49-.43,1.11-.43,2.56v11.58c0,1.54.11,2.18.33,2.64s.91,1.04,2.19,1.04c1.11,0,1.72-.63,1.95-1.19.24-.55.36-1.45.36-3.41v-10.67h-.01Z"/>
      <path class="cls-3" d="M117.59,29.45h-14.55v5.98c0,1.55.12,2.19.36,2.64s.76,1.03,2.25,1.03c.81-.1,1.33-.57,1.61-1.16s.38-1.47.38-3.17v-3.44h9.95v1.44c0,2.1-.14,3.72-.42,4.85-.28,1.13-.93,2.33-1.96,3.62-1.03,1.28-2.33,2.24-3.91,2.88s-3.56.96-5.93.96-4.35-.32-6.11-.95c-1.77-.63-3.14-1.5-4.12-2.6s-1.66-2.32-2.04-3.64c-.38-1.33-.57-3.25-.57-5.78v-9.93c0-2.97.42-5.32,1.27-7.04s2.23-3.03,4.16-3.95c1.93-.92,4.15-1.37,6.65-1.37,3.06,0,5.59.55,7.58,1.65,1.99,1.1,3.39,2.56,4.19,4.38s1.2,4.38,1.2,7.67v5.94h.01ZM107.45,24.62v-4.64c0-1.77-.1-2.55-.31-3.07-.21-.51-.77-1.13-1.87-1.13s-1.77.75-1.96,1.19-.28,1.09-.28,3.01v4.64h4.42Z"/>
      <path class="cls-3" d="M135.02,19.45c0-1.13-.1-2.22-.31-2.65-.21-.43-.74-1.01-2.2-1.01-.97,0-1.59.6-1.88,1.1-.29.49-.43,1.11-.43,2.56v15.97c0,1.54.11,2.18.32,2.64.22.46.91,1.05,2.19,1.05,1.11,0,1.72-.63,1.95-1.19.24-.55.36-1.45.36-3.41v-15.07h0ZM145.8,1.15v43.3h-10.89v-2.46c-1.04,1.03-2.14,1.8-3.28,2.31-1.15.51-2.35.77-3.6.77-1.69,0-3.15-.42-4.39-1.27s-2.03-1.83-2.38-2.94c-.35-1.11-.52-2.92-.52-5.44v-15.93c0-2.62.17-4.47.52-5.57.35-1.09,1.15-2.06,2.41-2.88,1.26-.83,2.75-1.24,4.49-1.24,1.34,0,2.58.23,3.7.69s2.14,1.15,3.05,2.08V1.14h10.89Z"/>
      <path class="cls-3" d="M173.53,10.43v34.01h-9.95l.19-2.81c-.75,1.15-1.68,2.01-2.78,2.58s-2.37.86-3.8.86c-1.63,0-2.99-.27-4.06-.82-1.08-.55-1.87-1.27-2.38-2.18-.51-.91-.83-1.85-.95-2.83-.13-.98-.19-2.93-.19-5.86V10.43h10.14v23.19c0,2.65.08,3.87.25,4.37s.74,1.1,1.75,1.1c1.28,0,1.65-.61,1.8-1.13.15-.51.23-1.81.23-4.6V10.43h9.76,0Z"/>
      <path class="cls-3" d="M90.25,41.24c0,1.87-1.51,3.38-3.38,3.38s-3.38-1.51-3.38-3.38,1.51-3.38,3.38-3.38,3.38,1.51,3.38,3.38Z"/>
    </g>
    <g>
      <rect class="cls-3" x=".9" y="55.36" width="172.63" height="17.71" rx="1.98" ry="1.98"/>
      <g>
        <path class="cls-2" d="M8.59,67.61v-5.99h-2.24v-.8h5.39v.8h-2.25v5.99h-.9Z"/>
        <path class="cls-2" d="M12.69,67.61v-6.8h.9v2.79h3.53v-2.79h.9v6.8h-.9v-3.2h-3.53v3.2h-.9Z"/>
        <path class="cls-2" d="M19.54,67.61v-6.8h4.91v.8h-4.01v2.08h3.76v.8h-3.76v2.31h4.17v.8h-5.07Z"/>
        <path class="cls-2" d="M32.95,60.81h.9v3.93c0,.68-.08,1.23-.23,1.63-.15.4-.43.73-.84.98s-.93.38-1.59.38-1.16-.11-1.56-.33-.69-.54-.87-.95c-.17-.42-.26-.98-.26-1.7v-3.93h.9v3.92c0,.59.06,1.03.16,1.3.11.28.3.5.57.65s.59.23.98.23c.66,0,1.13-.15,1.41-.45.28-.3.42-.88.42-1.73v-3.92h0Z"/>
        <path class="cls-2" d="M35.33,67.61v-6.8h.92l3.57,5.34v-5.34h.86v6.8h-.92l-3.57-5.34v5.34h-.86Z"/>
        <path class="cls-2" d="M42.35,67.61v-6.8h.9v6.8h-.9Z"/>
        <path class="cls-2" d="M46.78,67.61l-2.63-6.8h.97l1.77,4.94c.14.4.26.77.36,1.11.1-.37.23-.74.37-1.11l1.84-4.94h.92l-2.66,6.8h-.94Z"/>
        <path class="cls-2" d="M51.19,67.61v-6.8h4.91v.8h-4.01v2.08h3.76v.8h-3.76v2.31h4.17v.8h-5.07,0Z"/>
        <path class="cls-2" d="M57.51,67.61v-6.8h3.01c.61,0,1.07.06,1.38.18.32.12.57.34.76.65s.28.65.28,1.02c0,.48-.16.89-.47,1.22s-.79.54-1.45.63c.24.11.42.23.54.34.26.24.51.54.75.9l1.18,1.85h-1.13l-.9-1.41c-.26-.41-.48-.72-.65-.94s-.32-.37-.46-.45-.27-.15-.41-.18c-.1-.02-.27-.03-.5-.03h-1.04v3.02h-.9.01ZM58.41,63.81h1.93c.41,0,.73-.04.96-.13.23-.08.41-.22.53-.41.12-.19.18-.39.18-.61,0-.32-.12-.59-.35-.79-.23-.21-.6-.31-1.11-.31h-2.15v2.25h.01Z"/>
        <path class="cls-2" d="M64.05,65.43l.85-.07c.04.34.13.62.28.84.15.22.37.39.68.53s.66.2,1.04.2c.34,0,.65-.05.91-.15s.46-.24.59-.42.19-.37.19-.58-.06-.4-.19-.56c-.12-.16-.33-.29-.61-.4-.18-.07-.59-.18-1.21-.33s-1.06-.29-1.31-.42c-.32-.17-.57-.38-.73-.63s-.24-.53-.24-.85c0-.34.1-.66.29-.96s.48-.52.85-.68c.37-.15.79-.23,1.25-.23.5,0,.95.08,1.33.24.38.16.68.4.89.72s.32.67.33,1.07l-.86.06c-.05-.43-.2-.75-.47-.97-.27-.22-.66-.33-1.18-.33s-.94.1-1.19.3-.37.44-.37.72c0,.24.09.44.26.6.17.16.63.32,1.36.48.73.17,1.23.31,1.5.43.4.18.69.41.88.69.19.28.28.6.28.97s-.1.7-.31,1.02-.5.57-.89.75-.82.27-1.31.27c-.61,0-1.13-.09-1.55-.27-.42-.18-.74-.45-.98-.81-.24-.36-.36-.77-.37-1.22h.01Z"/>
        <path class="cls-2" d="M70.84,67.61v-6.8h.9v6.8h-.9Z"/>
        <path class="cls-2" d="M75.05,67.61v-5.99h-2.24v-.8h5.39v.8h-2.25v5.99h-.9Z"/>
        <path class="cls-2" d="M81.04,67.61v-2.88l-2.62-3.92h1.09l1.34,2.05c.25.38.48.77.69,1.15.2-.36.45-.76.74-1.2l1.32-2h1.05l-2.71,3.92v2.88s-.9,0-.9,0Z"/>
        <path class="cls-2" d="M87.82,64.3c0-1.13.3-2.01.91-2.65s1.39-.96,2.35-.96c.63,0,1.19.15,1.7.45.5.3.89.72,1.15,1.25.26.54.4,1.14.4,1.82s-.14,1.31-.42,1.85-.67.96-1.18,1.24-1.06.42-1.65.42c-.64,0-1.21-.15-1.72-.46s-.89-.73-1.15-1.27-.39-1.1-.39-1.7h0ZM88.75,64.31c0,.82.22,1.46.66,1.94s.99.71,1.66.71,1.23-.24,1.67-.71c.44-.48.66-1.15.66-2.03,0-.55-.09-1.04-.28-1.45-.19-.41-.46-.73-.82-.96-.36-.23-.76-.34-1.21-.34-.64,0-1.18.22-1.64.66s-.69,1.17-.69,2.19h-.01Z"/>
        <path class="cls-2" d="M95.52,67.61v-6.8h4.58v.8h-3.69v2.1h3.19v.8h-3.19v3.09h-.9.01Z"/>
        <path class="cls-2" d="M104.07,67.61v-6.8h.9v6.8h-.9Z"/>
        <path class="cls-2" d="M106.54,67.61v-6.8h.92l3.57,5.34v-5.34h.86v6.8h-.92l-3.57-5.34v5.34h-.86Z"/>
        <path class="cls-2" d="M113.45,67.61v-6.8h4.58v.8h-3.69v2.1h3.19v.8h-3.19v3.09h-.9,0Z"/>
        <path class="cls-2" d="M118.93,64.3c0-1.13.3-2.01.91-2.65s1.39-.96,2.35-.96c.63,0,1.19.15,1.7.45.5.3.89.72,1.15,1.25.26.54.4,1.14.4,1.82s-.14,1.31-.42,1.85-.67.96-1.18,1.24-1.06.42-1.65.42c-.64,0-1.21-.15-1.72-.46s-.89-.73-1.15-1.27-.39-1.1-.39-1.7h0ZM119.86,64.31c0,.82.22,1.46.66,1.94s.99.71,1.66.71,1.23-.24,1.67-.71c.44-.48.66-1.15.66-2.03,0-.55-.09-1.04-.28-1.45-.19-.41-.46-.73-.82-.96-.36-.23-.76-.34-1.21-.34-.64,0-1.18.22-1.64.66s-.69,1.17-.69,2.19h0Z"/>
        <path class="cls-2" d="M126.6,67.61v-6.8h3.01c.61,0,1.07.06,1.38.18.32.12.57.34.76.65s.28.65.28,1.02c0,.48-.16.89-.47,1.22s-.79.54-1.45.63c.24.11.42.23.54.34.26.24.51.54.75.9l1.18,1.85h-1.13l-.9-1.41c-.26-.41-.48-.72-.65-.94s-.32-.37-.46-.45-.27-.15-.41-.18c-.1-.02-.27-.03-.5-.03h-1.04v3.02h-.9.01ZM127.5,63.81h1.93c.41,0,.73-.04.96-.13.23-.08.41-.22.53-.41s.18-.39.18-.61c0-.32-.12-.59-.35-.79-.23-.21-.6-.31-1.11-.31h-2.15v2.25h.01Z"/>
        <path class="cls-2" d="M133.42,67.61v-6.8h1.35l1.61,4.81c.15.45.26.78.32,1.01.08-.25.2-.61.36-1.09l1.63-4.73h1.21v6.8h-.87v-5.69l-1.97,5.69h-.81l-1.97-5.79v5.79h-.87,0Z"/>
        <path class="cls-2" d="M140.61,67.61l2.61-6.8h.97l2.78,6.8h-1.02l-.79-2.06h-2.84l-.75,2.06h-.96ZM142.57,64.82h2.3l-.71-1.88c-.22-.57-.38-1.04-.48-1.41-.09.44-.21.87-.37,1.3l-.75,1.99h0Z"/>
        <path class="cls-2" d="M149.42,67.61v-5.99h-2.24v-.8h5.39v.8h-2.25v5.99h-.9Z"/>
        <path class="cls-2" d="M153.64,67.61v-6.8h.9v6.8h-.9Z"/>
        <path class="cls-2" d="M160.97,65.23l.9.23c-.19.74-.53,1.3-1.02,1.69s-1.09.58-1.8.58-1.33-.15-1.79-.45c-.46-.3-.81-.73-1.05-1.3s-.36-1.17-.36-1.82c0-.71.14-1.33.41-1.85s.66-.93,1.15-1.2c.5-.27,1.05-.41,1.65-.41.68,0,1.25.17,1.71.52s.79.83.97,1.46l-.89.21c-.16-.49-.39-.85-.69-1.08s-.68-.34-1.13-.34c-.52,0-.96.13-1.31.38-.35.25-.6.59-.74,1.01-.14.42-.21.86-.21,1.3,0,.58.08,1.08.25,1.51s.43.75.79.97c.36.21.74.32,1.15.32.5,0,.93-.15,1.28-.44s.59-.72.71-1.29h.02Z"/>
        <path class="cls-2" d="M162.67,65.43l.85-.07c.04.34.13.62.28.84.15.22.37.39.68.53s.66.2,1.04.2c.34,0,.65-.05.91-.15.26-.1.46-.24.59-.42.13-.18.19-.37.19-.58s-.06-.4-.19-.56c-.12-.16-.33-.29-.61-.4-.18-.07-.59-.18-1.21-.33s-1.06-.29-1.31-.42c-.32-.17-.57-.38-.73-.63-.16-.25-.24-.53-.24-.85,0-.34.1-.66.29-.96s.48-.52.85-.68c.37-.15.79-.23,1.25-.23.5,0,.95.08,1.33.24.38.16.68.4.89.72s.32.67.33,1.07l-.86.06c-.05-.43-.2-.75-.47-.97s-.66-.33-1.18-.33-.94.1-1.19.3-.37.44-.37.72c0,.24.09.44.26.6.17.16.63.32,1.36.48.73.17,1.23.31,1.5.43.4.18.69.41.88.69s.28.6.28.97-.1.7-.31,1.02c-.21.32-.5.57-.89.75s-.82.27-1.31.27c-.61,0-1.13-.09-1.55-.27s-.74-.45-.98-.81c-.24-.36-.36-.77-.37-1.22h0Z"/>
      </g>
    </g>
  </g>
</svg>